<?xml version="1.0" standalone="no"?>
<!DOCTYPE svg PUBLIC "-//W3C//DTD SVG 20010904//EN"
 "http://www.w3.org/TR/2001/REC-SVG-20010904/DTD/svg10.dtd">
<svg version="1.0" xmlns="http://www.w3.org/2000/svg"
 width="512.000000pt" height="512.000000pt" viewBox="0 0 512.000000 512.000000"
 preserveAspectRatio="xMidYMid meet">
<metadata>
Created by potrace 1.14, written by Peter Selinger 2001-2017
</metadata>
<g transform="translate(0.000000,512.000000) scale(0.100000,-0.100000)"
fill="#000000" stroke="none">
<path d="M10 2560 l0 -2550 2550 0 2550 0 0 2550 0 2550 -2550 0 -2550 0 0
-2550z m2221 2003 c34 -72 57 -103 128 -174 137 -136 301 -218 600 -300 82
-23 176 -56 215 -77 164 -86 256 -234 256 -411 0 -106 -27 -178 -91 -246 -61
-64 -146 -113 -393 -225 -108 -48 -229 -109 -269 -134 -69 -42 -160 -127 -184
-170 -10 -19 -11 -19 -37 1 -14 11 -42 40 -61 64 -105 125 -130 281 -71 444
14 38 24 70 23 70 -182 103 -250 150 -344 238 -159 149 -243 330 -243 525 0
132 32 231 106 333 64 88 174 148 271 149 l51 0 43 -87z m1844 -1058 c228 -58
363 -228 381 -476 15 -223 -78 -428 -238 -522 -160 -94 -419 -96 -589 -6 -191
102 -289 363 -234 623 42 198 172 334 361 380 80 19 245 20 319 1z m-1674
-749 c135 -29 235 -97 371 -252 198 -226 326 -408 418 -599 108 -221 145 -371
144 -575 -1 -155 -21 -245 -79 -369 -190 -400 -708 -641 -1141 -531 -201 52
-349 191 -399 376 -16 57 -24 278 -11 291 3 3 33 -6 66 -20 163 -71 343 -53
454 45 60 52 87 107 94 184 13 165 -80 330 -310 549 -169 161 -228 276 -215
423 21 248 265 484 507 491 19 0 65 -6 101 -13z m-1071 -286 c130 -25 236
-107 293 -228 30 -64 32 -73 32 -188 0 -120 0 -120 -39 -200 -33 -66 -60 -100
-169 -210 -273 -278 -366 -456 -354 -684 2 -52 8 -103 12 -113 12 -29 -73 -62
-165 -62 -263 0 -505 259 -551 590 -21 152 9 302 101 490 124 255 303 449 505
547 124 59 230 78 335 58z m2695 -129 c150 -37 274 -108 385 -222 128 -131
260 -358 316 -544 39 -130 45 -300 15 -410 -44 -160 -125 -266 -248 -327 -64
-31 -73 -33 -178 -33 -105 0 -113 2 -179 34 -88 43 -180 133 -223 221 -19 38
-44 113 -58 180 -79 360 -206 563 -417 665 -37 18 -76 35 -88 38 -33 8 -28 88
11 165 97 195 392 298 664 233z"/>
<path d="M3835 3151 c-22 -10 -55 -34 -73 -55 -68 -78 -25 -238 79 -291 85
-45 234 23 260 118 21 78 -20 189 -84 228 -41 25 -128 25 -182 0z"/>
</g>
</svg>
